<svg xmlns="http://www.w3.org/2000/svg" width="68" height="68" viewBox="0 0 68 68" fill="none"><path d="M33.4989 60.9977C26.4016 60.9977 19.3013 60.9977 12.1979 60.9977C8.21486 60.9977 6.01376 58.809 6.01376 54.8625C6.01376 44.9343 6.03207 35.0062 6 25.0688C6 22.5661 7.03753 20.7922 9.1745 19.5317C16.2336 15.3652 23.2812 11.1758 30.3174 6.96342C32.4613 5.68 34.5387 5.67771 36.6803 6.96342C43.7516 11.1895 50.8305 15.4004 57.9171 19.5959C60.0197 20.8404 61.0068 22.6234 61 25.0711C60.9702 35.0382 61 45.01 60.9862 54.9725C60.9862 58.7655 58.7371 60.9954 54.9143 60.9977C47.7682 61.0008 40.6297 61.0008 33.4989 60.9977ZM9.78379 29.3843C9.74067 29.5041 9.70849 29.6276 9.68761 29.7533C9.68761 38.2651 9.68761 46.7769 9.68761 55.2887C9.68761 56.6913 10.4342 57.3239 11.994 57.3239C26.3382 57.3239 40.6825 57.3239 55.0266 57.3239C56.662 57.3239 57.3171 56.673 57.3171 55.0321C57.3171 46.7815 57.3171 38.5363 57.3171 30.2964C57.2993 29.9955 57.2664 29.6957 57.2185 29.398C56.7604 29.6479 56.4375 29.8289 56.11 30.0168C49.225 33.9519 42.3193 37.8457 35.4778 41.8495C34.0303 42.6952 32.9263 42.6768 31.4993 41.8243C26.9185 39.0947 22.2506 36.5004 17.6171 33.8533L9.78379 29.3843ZM57.6537 24.4248C56.9917 23.7693 56.5085 23.0795 55.8626 22.6853C48.9364 18.521 41.9734 14.421 35.0471 10.259C33.9638 9.60816 33.0843 9.58523 31.9917 10.2453C25.0678 14.4118 18.1049 18.5142 11.174 22.6693C10.63 22.9976 10.1698 23.4479 9.82964 23.9848C9.48837 24.544 9.62578 25.0803 10.3266 25.4791C17.853 29.7487 25.3564 34.0573 32.8828 38.3133C33.0731 38.4036 33.2807 38.4517 33.4914 38.4545C33.702 38.4573 33.9109 38.4145 34.1036 38.3293C41.6666 34.0512 49.2142 29.7449 56.7467 25.4103C57.0101 25.2567 57.1933 24.9198 57.6353 24.4248H57.6537Z" fill="white"></path></svg>