<svg xmlns="http://www.w3.org/2000/svg" width="60" height="56" viewBox="0 0 60 56" fill="none"><path d="M2.375 53.5H57.625M6.625 2.5V53.5M36.375 2.5V53.5M53.375 15.25V53.5M15.125 13.125H17.25M15.125 21.625H17.25M15.125 30.125H17.25M25.75 13.125H27.875M25.75 21.625H27.875M25.75 30.125H27.875M15.125 53.5V43.9375C15.125 42.178 16.553 40.75 18.3125 40.75H24.6875C26.447 40.75 27.875 42.178 27.875 43.9375V53.5M4.5 2.5H38.5M36.375 15.25H55.5M44.875 25.875H44.8977V25.8977H44.875V25.875ZM44.875 34.375H44.8977V34.3977H44.875V34.375ZM44.875 42.875H44.8977V42.8977H44.875V42.875Z" stroke="white" stroke-width="3.5" stroke-linecap="round" stroke-linejoin="round"></path></svg>