<svg xmlns="http://www.w3.org/2000/svg" width="55" height="55" viewBox="0 0 55 55" fill="none"><mask id="path-1-inside-1_1425_562" fill="white"><path fill-rule="evenodd" clip-rule="evenodd" d="M27.3977 0H27.6023C30.1067 0 32.1328 -4.47035e-08 33.7674 0.168837C35.4609 0.342791 36.9319 0.713721 38.2519 1.58605C39.0142 2.08744 39.7023 2.69628 40.2933 3.39465C41.3139 4.60209 41.8563 6.01674 42.2323 7.67953C42.5956 9.28093 42.836 11.2942 43.1353 13.7781L43.3963 15.9602C43.7033 18.5107 43.9565 20.6237 43.9233 22.3095C43.8874 24.0798 43.537 25.7093 42.3449 27.0523C41.1528 28.3979 39.577 28.9402 37.8221 29.1858C36.1542 29.4186 34.0258 29.4186 31.4574 29.4186H29.4186V31.9767H40.2907C41.1119 31.9767 41.8819 32.1967 42.5419 32.583L43.2581 30.4419C43.4041 29.9685 43.5792 29.5045 43.7826 29.0528C44.0026 28.5795 44.1151 28.3928 44.2891 28.1037C45.0181 26.904 45.9698 25.8628 47.5072 25.1874C48.9551 24.5479 50.7663 24.3023 53.0814 24.3023C53.5902 24.3023 54.0782 24.5045 54.4381 24.8643C54.7979 25.2241 55 25.7121 55 26.2209C55 26.7298 54.7979 27.2178 54.4381 27.5776C54.0782 27.9374 53.5902 28.1395 53.0814 28.1395C50.9658 28.1395 49.7814 28.3749 49.0549 28.6972C48.4179 28.9786 48.006 29.3751 47.5686 30.0965C47.4919 30.2244 47.4586 30.2781 47.4253 30.3421C47.3682 30.4487 47.3145 30.557 47.2642 30.667C47.1363 30.9484 47.0723 31.1274 46.8805 31.7005L44.6702 38.3388C44.5897 38.58 44.4618 38.8026 44.2942 38.9937C43.7813 40.3172 42.8802 41.4547 41.7092 42.2569C40.5382 43.059 39.152 43.4883 37.7326 43.4884H29.4186V46.4712C30.8785 46.8818 32.2155 47.6437 33.313 48.6903C34.4104 49.7369 35.2348 51.0364 35.7142 52.4751C35.8531 52.9515 35.8021 53.4632 35.5718 53.9028C35.3415 54.3423 34.9498 54.6755 34.479 54.8325C34.0083 54.9894 33.495 54.9578 33.047 54.7443C32.599 54.5309 32.2512 54.1522 32.0765 53.6877C31.6283 52.3449 30.675 51.2292 29.4186 50.577V53.0814C29.4186 53.5902 29.2165 54.0782 28.8567 54.4381C28.4968 54.7979 28.0088 55 27.5 55C26.9912 55 26.5031 54.7979 26.1433 54.4381C25.7835 54.0782 25.5814 53.5902 25.5814 53.0814V50.5744C24.3245 51.2273 23.3712 52.3439 22.9235 53.6877C22.7577 54.1641 22.411 54.5561 21.9584 54.7788C21.5058 55.0015 20.9837 55.037 20.5051 54.8776C20.0265 54.7181 19.6299 54.3766 19.4013 53.927C19.1726 53.4774 19.1302 52.9558 19.2833 52.4751C19.7628 51.0361 20.5877 49.7364 21.6856 48.6898C22.7835 47.6432 24.1211 46.8814 25.5814 46.4712V43.4884H17.2674C15.848 43.4883 14.4618 43.059 13.2908 42.2569C12.1198 41.4547 11.2187 40.3172 10.7058 38.9937C10.5382 38.8026 10.4104 38.5799 10.3298 38.3388L8.11698 31.7005C8.01084 31.3483 7.88268 31.0031 7.73325 30.667C7.64343 30.4713 7.54265 30.2808 7.4314 30.0965C6.99395 29.3751 6.58209 28.9786 5.94512 28.6972C5.21605 28.3749 4.03419 28.1395 1.9186 28.1395C1.40976 28.1395 0.921754 27.9374 0.561946 27.5776C0.202138 27.2178 0 26.7298 0 26.2209C0 25.7121 0.202138 25.2241 0.561946 24.8643C0.921754 24.5045 1.40976 24.3023 1.9186 24.3023C4.23372 24.3023 6.04488 24.5453 7.49535 25.1849C9.03023 25.8628 9.98186 26.904 10.7109 28.1012C10.8849 28.3928 10.9974 28.5795 11.2174 29.0528C11.4426 29.544 11.5679 29.9149 11.7444 30.4419L12.4581 32.583C13.1181 32.1993 13.8881 31.9767 14.7093 31.9767H25.5814V29.4186H23.5426C20.9742 29.4186 18.8458 29.4186 17.1779 29.1858C15.423 28.9402 13.8472 28.3953 12.6551 27.0523C11.463 25.7093 11.1126 24.0798 11.0767 22.3095C11.0435 20.6237 11.2967 18.5107 11.6037 15.9602L11.8647 13.7781C12.164 11.2942 12.4044 9.28093 12.7677 7.67953C13.1437 6.01674 13.686 4.60209 14.7067 3.39465C15.2977 2.69628 15.9858 2.09 16.7481 1.58605C18.0681 0.716279 19.5365 0.342791 21.2326 0.168837C22.8672 -4.47035e-08 24.8933 0 27.3977 0ZM37.7326 39.6512C39.4977 39.6512 40.9302 38.2186 40.9302 36.4535C40.9302 36.2839 40.8629 36.1212 40.7429 36.0013C40.623 35.8813 40.4603 35.8139 40.2907 35.8139H14.7093C14.5397 35.8139 14.377 35.8813 14.2571 36.0013C14.1371 36.1212 14.0698 36.2839 14.0698 36.4535C14.0698 38.2186 15.5023 39.6512 17.2674 39.6512H37.7326ZM21.6265 3.98558C20.2477 4.12884 19.4623 4.38977 18.8612 4.78884C18.4031 5.09018 17.9905 5.45542 17.6358 5.87349C17.1702 6.42605 16.8172 7.17302 16.5102 8.52372C16.1956 9.91279 15.9756 11.7265 15.6635 14.3384L15.4307 16.2774C15.1033 19.0044 14.8858 20.8488 14.914 22.2302C14.9395 23.5605 15.1928 24.1258 15.5279 24.5044C15.8605 24.8805 16.3926 25.1977 17.71 25.3819C19.0812 25.5737 20.9384 25.5788 23.6858 25.5788H31.3142C34.0616 25.5788 35.9188 25.5737 37.29 25.3819C38.6074 25.1977 39.1395 24.8805 39.4746 24.5044C39.8072 24.1258 40.0605 23.5579 40.0886 22.2302C40.1142 20.8463 39.8967 19.0019 39.5693 16.2749L39.3391 14.3358C39.0244 11.724 38.8019 9.91023 38.4898 8.52116C38.1828 7.17046 37.8298 6.42349 37.3642 5.87093C37.0095 5.45282 36.5969 5.08757 36.1388 4.78628C35.5377 4.38721 34.7523 4.12628 33.3735 3.98302C31.9588 3.83721 30.1323 3.83465 27.5 3.83465C24.8677 3.83465 23.0412 3.83465 21.6265 3.98302V3.98558Z"></path></mask><path fill-rule="evenodd" clip-rule="evenodd" d="M27.3977 0H27.6023C30.1067 0 32.1328 -4.47035e-08 33.7674 0.168837C35.4609 0.342791 36.9319 0.713721 38.2519 1.58605C39.0142 2.08744 39.7023 2.69628 40.2933 3.39465C41.3139 4.60209 41.8563 6.01674 42.2323 7.67953C42.5956 9.28093 42.836 11.2942 43.1353 13.7781L43.3963 15.9602C43.7033 18.5107 43.9565 20.6237 43.9233 22.3095C43.8874 24.0798 43.537 25.7093 42.3449 27.0523C41.1528 28.3979 39.577 28.9402 37.8221 29.1858C36.1542 29.4186 34.0258 29.4186 31.4574 29.4186H29.4186V31.9767H40.2907C41.1119 31.9767 41.8819 32.1967 42.5419 32.583L43.2581 30.4419C43.4041 29.9685 43.5792 29.5045 43.7826 29.0528C44.0026 28.5795 44.1151 28.3928 44.2891 28.1037C45.0181 26.904 45.9698 25.8628 47.5072 25.1874C48.9551 24.5479 50.7663 24.3023 53.0814 24.3023C53.5902 24.3023 54.0782 24.5045 54.4381 24.8643C54.7979 25.2241 55 25.7121 55 26.2209C55 26.7298 54.7979 27.2178 54.4381 27.5776C54.0782 27.9374 53.5902 28.1395 53.0814 28.1395C50.9658 28.1395 49.7814 28.3749 49.0549 28.6972C48.4179 28.9786 48.006 29.3751 47.5686 30.0965C47.4919 30.2244 47.4586 30.2781 47.4253 30.3421C47.3682 30.4487 47.3145 30.557 47.2642 30.667C47.1363 30.9484 47.0723 31.1274 46.8805 31.7005L44.6702 38.3388C44.5897 38.58 44.4618 38.8026 44.2942 38.9937C43.7813 40.3172 42.8802 41.4547 41.7092 42.2569C40.5382 43.059 39.152 43.4883 37.7326 43.4884H29.4186V46.4712C30.8785 46.8818 32.2155 47.6437 33.313 48.6903C34.4104 49.7369 35.2348 51.0364 35.7142 52.4751C35.8531 52.9515 35.8021 53.4632 35.5718 53.9028C35.3415 54.3423 34.9498 54.6755 34.479 54.8325C34.0083 54.9894 33.495 54.9578 33.047 54.7443C32.599 54.5309 32.2512 54.1522 32.0765 53.6877C31.6283 52.3449 30.675 51.2292 29.4186 50.577V53.0814C29.4186 53.5902 29.2165 54.0782 28.8567 54.4381C28.4968 54.7979 28.0088 55 27.5 55C26.9912 55 26.5031 54.7979 26.1433 54.4381C25.7835 54.0782 25.5814 53.5902 25.5814 53.0814V50.5744C24.3245 51.2273 23.3712 52.3439 22.9235 53.6877C22.7577 54.1641 22.411 54.5561 21.9584 54.7788C21.5058 55.0015 20.9837 55.037 20.5051 54.8776C20.0265 54.7181 19.6299 54.3766 19.4013 53.927C19.1726 53.4774 19.1302 52.9558 19.2833 52.4751C19.7628 51.0361 20.5877 49.7364 21.6856 48.6898C22.7835 47.6432 24.1211 46.8814 25.5814 46.4712V43.4884H17.2674C15.848 43.4883 14.4618 43.059 13.2908 42.2569C12.1198 41.4547 11.2187 40.3172 10.7058 38.9937C10.5382 38.8026 10.4104 38.5799 10.3298 38.3388L8.11698 31.7005C8.01084 31.3483 7.88268 31.0031 7.73325 30.667C7.64343 30.4713 7.54265 30.2808 7.4314 30.0965C6.99395 29.3751 6.58209 28.9786 5.94512 28.6972C5.21605 28.3749 4.03419 28.1395 1.9186 28.1395C1.40976 28.1395 0.921754 27.9374 0.561946 27.5776C0.202138 27.2178 0 26.7298 0 26.2209C0 25.7121 0.202138 25.2241 0.561946 24.8643C0.921754 24.5045 1.40976 24.3023 1.9186 24.3023C4.23372 24.3023 6.04488 24.5453 7.49535 25.1849C9.03023 25.8628 9.98186 26.904 10.7109 28.1012C10.8849 28.3928 10.9974 28.5795 11.2174 29.0528C11.4426 29.544 11.5679 29.9149 11.7444 30.4419L12.4581 32.583C13.1181 32.1993 13.8881 31.9767 14.7093 31.9767H25.5814V29.4186H23.5426C20.9742 29.4186 18.8458 29.4186 17.1779 29.1858C15.423 28.9402 13.8472 28.3953 12.6551 27.0523C11.463 25.7093 11.1126 24.0798 11.0767 22.3095C11.0435 20.6237 11.2967 18.5107 11.6037 15.9602L11.8647 13.7781C12.164 11.2942 12.4044 9.28093 12.7677 7.67953C13.1437 6.01674 13.686 4.60209 14.7067 3.39465C15.2977 2.69628 15.9858 2.09 16.7481 1.58605C18.0681 0.716279 19.5365 0.342791 21.2326 0.168837C22.8672 -4.47035e-08 24.8933 0 27.3977 0ZM37.7326 39.6512C39.4977 39.6512 40.9302 38.2186 40.9302 36.4535C40.9302 36.2839 40.8629 36.1212 40.7429 36.0013C40.623 35.8813 40.4603 35.8139 40.2907 35.8139H14.7093C14.5397 35.8139 14.377 35.8813 14.2571 36.0013C14.1371 36.1212 14.0698 36.2839 14.0698 36.4535C14.0698 38.2186 15.5023 39.6512 17.2674 39.6512H37.7326ZM21.6265 3.98558C20.2477 4.12884 19.4623 4.38977 18.8612 4.78884C18.4031 5.09018 17.9905 5.45542 17.6358 5.87349C17.1702 6.42605 16.8172 7.17302 16.5102 8.52372C16.1956 9.91279 15.9756 11.7265 15.6635 14.3384L15.4307 16.2774C15.1033 19.0044 14.8858 20.8488 14.914 22.2302C14.9395 23.5605 15.1928 24.1258 15.5279 24.5044C15.8605 24.8805 16.3926 25.1977 17.71 25.3819C19.0812 25.5737 20.9384 25.5788 23.6858 25.5788H31.3142C34.0616 25.5788 35.9188 25.5737 37.29 25.3819C38.6074 25.1977 39.1395 24.8805 39.4746 24.5044C39.8072 24.1258 40.0605 23.5579 40.0886 22.2302C40.1142 20.8463 39.8967 19.0019 39.5693 16.2749L39.3391 14.3358C39.0244 11.724 38.8019 9.91023 38.4898 8.52116C38.1828 7.17046 37.8298 6.42349 37.3642 5.87093C37.0095 5.45282 36.5969 5.08757 36.1388 4.78628C35.5377 4.38721 34.7523 4.12628 33.3735 3.98302C31.9588 3.83721 30.1323 3.83465 27.5 3.83465C24.8677 3.83465 23.0412 3.83465 21.6265 3.98302V3.98558Z" fill="white" stroke="black" mask="url(#path-1-inside-1_1425_562)"></path></svg>